<svg width="1922" height="962" viewBox="0 0 1922 962" fill="none" xmlns="http://www.w3.org/2000/svg">
<rect width="1920" height="960" transform="translate(1 1)" fill="none"/>
<g opacity="0.66">
<path opacity="0.9" d="M1.00399 481H1921" stroke="white" stroke-opacity="0.6"/>
<path opacity="0.9" d="M1.00399 721H1921" stroke="white" stroke-opacity="0.6"/>
<path opacity="0.9" d="M0.992188 900.998H1920.99" stroke="white" stroke-opacity="0.6"/>
<path opacity="0.9" d="M1 60.0071C750.805 60.0071 1171.19 60.0071 1921 60.0071" stroke="white" stroke-opacity="0.6"/>
<path opacity="0.9" d="M1.00399 241H1921" stroke="white" stroke-opacity="0.6"/>
<path opacity="0.9" d="M1.00399 1.00023L961.002 961" stroke="white" stroke-opacity="0.6"/>
<path opacity="0.9" d="M1.00399 1.00025L481.003 961" stroke="white" stroke-opacity="0.6"/>
<path opacity="0.9" d="M1.00399 481L961.002 961" stroke="white" stroke-opacity="0.6"/>
<path opacity="0.9" d="M1.00399 481L961.002 1" stroke="white" stroke-opacity="0.6"/>
<path opacity="0.9" d="M961.002 961L1921 481" stroke="white" stroke-opacity="0.6"/>
<path opacity="0.9" d="M961.002 1.00024L1921 481" stroke="white" stroke-opacity="0.6"/>
<path opacity="0.9" d="M1.00399 961L961.002 1.00024" stroke="white" stroke-opacity="0.6"/>
<path opacity="0.9" d="M1.00399 961L481.003 1.00025" stroke="white" stroke-opacity="0.6"/>
<path opacity="0.9" d="M1.00399 961L1921 1.00023" stroke="white" stroke-opacity="0.6"/>
<path opacity="0.9" d="M1.00399 1L1921 961" stroke="white" stroke-opacity="0.6"/>
<path opacity="0.9" d="M1921 1.00023L961.002 961" stroke="white" stroke-opacity="0.6"/>
<path opacity="0.9" d="M1921 1.00025L1441 961" stroke="white" stroke-opacity="0.6"/>
<path opacity="0.9" d="M1921 961L961.002 1.00023" stroke="white" stroke-opacity="0.6"/>
<path opacity="0.9" d="M1921 961L1441 1.00025" stroke="white" stroke-opacity="0.6"/>
<path opacity="0.9" d="M961.002 961V1.00026" stroke="white" stroke-opacity="0.6"/>
<path opacity="0.9" d="M1441 961V1.00026" stroke="white" stroke-opacity="0.6"/>
<path opacity="0.9" d="M1681 961V1.00026" stroke="white" stroke-opacity="0.6"/>
<path opacity="0.9" d="M241.003 961V1.00026" stroke="white" stroke-opacity="0.6"/>
<path opacity="0.9" d="M1801 961V1.00026" stroke="white" stroke-opacity="0.6"/>
<path opacity="0.9" d="M121.004 961V1.00026" stroke="white" stroke-opacity="0.6"/>
<path opacity="0.9" d="M1861 961V1.00026" stroke="white" stroke-opacity="0.6"/>
<path opacity="0.9" d="M61.004 961V1.00026" stroke="white" stroke-opacity="0.6"/>
<path opacity="0.9" d="M481.003 961V1.00026" stroke="white" stroke-opacity="0.6"/>
<path opacity="0.9" d="M1.00391 641H1921" stroke="white" stroke-opacity="0.6"/>
<path opacity="0.9" d="M1.00391 321H1921" stroke="white" stroke-opacity="0.6"/>
<path opacity="0.9" d="M1281 961V1.00026" stroke="white" stroke-opacity="0.6"/>
<path opacity="0.9" d="M641.003 961V1.00026" stroke="white" stroke-opacity="0.6"/>
</g>
</svg>
