<svg width="602" height="361" viewBox="0 0 602 361" fill="none" xmlns="http://www.w3.org/2000/svg">
<g clip-path="url(#clip0_422_44436)">
<rect width="602" height="356" fill="black"/>
<g opacity="0.2">
<g clip-path="url(#clip1_422_44436)">
<path d="M167.125 -51.5L122.5 -26L167.125 -0.5M167.125 -51.5L211.75 -26L167.125 -0.5M167.125 -51.5V-0.5" stroke="white" stroke-width="1.7191"/>
<path d="M211.75 -26L167.125 -0.5L211.75 25M211.75 -26L256.375 -0.5L211.75 25M211.75 -26V25" stroke="white" stroke-width="1.7191"/>
<path d="M256.375 -51.5L211.75 -26L256.375 -0.5M256.375 -51.5L301 -26L256.375 -0.5M256.375 -51.5V-0.5" stroke="white" stroke-width="1.7191"/>
<path d="M-11.375 50.5L-56 76L-11.375 101.5M-11.375 50.5L33.25 76L-11.375 101.5M-11.375 50.5V101.5" stroke="white" stroke-width="1.7191"/>
<path d="M167.125 50.5L122.5 76L167.125 101.5M167.125 50.5L211.75 76L167.125 101.5M167.125 50.5V101.5" stroke="white" stroke-width="1.7191"/>
<path d="M77.875 -0.5L33.25 25L77.875 50.5M77.875 -0.5L122.5 25L77.875 50.5M77.875 -0.5V50.5" stroke="white" stroke-width="1.7191"/>
<path d="M33.25 76L-11.375 101.5L33.25 127M33.25 76L77.875 101.5L33.25 127M33.25 76V127" stroke="white" stroke-width="1.7191"/>
<path d="M211.75 76L167.125 101.5L211.75 127M211.75 76L256.375 101.5L211.75 127M211.75 76V127" stroke="white" stroke-width="1.7191"/>
<path d="M122.5 25L77.875 50.5L122.5 76M122.5 25L167.125 50.5L122.5 76M122.5 25V76" stroke="white" stroke-width="1.7191"/>
<path d="M33.25 25L-11.375 50.5L33.25 76M33.25 25L77.875 50.5L33.25 76M33.25 25V76" stroke="white" stroke-width="1.7191"/>
<path d="M211.75 25L167.125 50.5L211.75 76M211.75 25L256.375 50.5L211.75 76M211.75 25V76" stroke="white" stroke-width="1.7191"/>
<path d="M122.5 -26L77.875 -0.5L122.5 25M122.5 -26L167.125 -0.5L122.5 25M122.5 -26V25" stroke="white" stroke-width="1.7191"/>
<path d="M77.875 50.5L33.25 76L77.875 101.5M77.875 50.5L122.5 76L77.875 101.5M77.875 50.5V101.5" stroke="white" stroke-width="1.7191"/>
<path d="M256.375 50.5L211.75 76L256.375 101.5M256.375 50.5L301 76L256.375 101.5M256.375 50.5V101.5" stroke="white" stroke-width="1.7191"/>
<path d="M167.125 -0.5L122.5 25L167.125 50.5M167.125 -0.5L211.75 25L167.125 50.5M167.125 -0.5V50.5" stroke="white" stroke-width="1.7191"/>
<path d="M256.375 -0.5L211.75 25L256.375 50.5M256.375 -0.5L301 25L256.375 50.5M256.375 -0.5V50.5" stroke="white" stroke-width="1.7191"/>
<path d="M256.375 101.5L211.75 127L256.375 152.5M256.375 101.5L301 127L256.375 152.5M256.375 101.5V152.5" stroke="white" stroke-width="1.7191"/>
<path d="M211.75 127L167.125 152.5L211.75 178M211.75 127L256.375 152.5L211.75 178M211.75 127V178" stroke="white" stroke-width="1.7191"/>
<path d="M33.25 127L-11.375 152.5L33.25 178M33.25 127L77.875 152.5L33.25 178M33.25 127V178" stroke="white" stroke-width="1.7191"/>
<path d="M-11.375 101.5L-56 127L-11.375 152.5M-11.375 101.5L33.25 127L-11.375 152.5M-11.375 101.5V152.5" stroke="white" stroke-width="1.7191"/>
<path d="M-11.375 -0.5L-56 25L-11.375 50.5M-11.375 -0.5L33.25 25L-11.375 50.5M-11.375 -0.5V50.5" stroke="white" stroke-width="1.7191"/>
<path d="M-11.375 -51.5L-56 -26L-11.375 -0.5M-11.375 -51.5L33.25 -26L-11.375 -0.5M-11.375 -51.5V-0.5" stroke="white" stroke-width="1.7191"/>
<path d="M77.875 -51.5L33.25 -26L77.875 -0.5M77.875 -51.5L122.5 -26L77.875 -0.5M77.875 -51.5V-0.5" stroke="white" stroke-width="1.7191"/>
<path d="M33.25 -26L-11.375 -0.5L33.25 25M33.25 -26L77.875 -0.5L33.25 25M33.25 -26V25" stroke="white" stroke-width="1.7191"/>
<path d="M122.5 76L77.875 101.5L122.5 127M122.5 76L167.125 101.5L122.5 127M122.5 76V127" stroke="white" stroke-width="1.7191"/>
<path d="M77.875 101.5L33.25 127L77.875 152.5M77.875 101.5L122.5 127L77.875 152.5M77.875 101.5V152.5" stroke="white" stroke-width="1.7191"/>
<path d="M122.5 127L77.875 152.5L122.5 178M122.5 127L167.125 152.5L122.5 178M122.5 127V178" stroke="white" stroke-width="1.7191"/>
<path d="M167.125 101.5L122.5 127L167.125 152.5M167.125 101.5L211.75 127L167.125 152.5M167.125 101.5V152.5" stroke="white" stroke-width="1.7191"/>
<path d="M167.125 152.5L122.5 178L167.125 203.5M167.125 152.5L211.75 178L167.125 203.5M167.125 152.5V203.5" stroke="white" stroke-width="1.7191"/>
<path d="M256.375 152.5L211.75 178L256.375 203.5M256.375 152.5L301 178L256.375 203.5M256.375 152.5V203.5" stroke="white" stroke-width="1.7191"/>
<path d="M77.875 152.5L33.25 178L77.875 203.5M77.875 152.5L122.5 178L77.875 203.5M77.875 152.5V203.5" stroke="white" stroke-width="1.7191"/>
<path d="M-11.375 152.5L-56 178L-11.375 203.5M-11.375 152.5L33.25 178L-11.375 203.5M-11.375 152.5V203.5" stroke="white" stroke-width="1.7191"/>
<path d="M33.25 25L-56 76L33.25 127M33.25 25L122.5 76L33.25 127M33.25 25V127" stroke="white" stroke-width="1.7191"/>
<path d="M122.5 -26L33.25 25L122.5 76M122.5 -26L211.75 25L122.5 76M122.5 -26V76" stroke="white" stroke-width="1.7191"/>
<path d="M211.75 25L122.5 76L211.75 127M211.75 25L301 76L211.75 127M211.75 25V127" stroke="white" stroke-width="1.7191"/>
<path d="M122.5 76L33.25 127L122.5 178M122.5 76L211.75 127L122.5 178M122.5 76V178" stroke="white" stroke-width="1.7191"/>
<path d="M33.25 127L-56 178L33.25 229M33.25 127L122.5 178L33.25 229M33.25 127V229" stroke="white" stroke-width="1.7191"/>
<path d="M-56 76L-145.25 127L-56 178M-56 76L33.25 127L-56 178M-56 76V178" stroke="white" stroke-width="1.7191"/>
<path d="M-56 -26L-145.25 25L-56 76M-56 -26L33.25 25L-56 76M-56 -26V76" stroke="white" stroke-width="1.7191"/>
<path d="M33.25 -77L-56 -26L33.25 25M33.25 -77L122.5 -26L33.25 25M33.25 -77V25" stroke="white" stroke-width="1.7191"/>
<path d="M211.75 -77L122.5 -26L211.75 25M211.75 -77L301 -26L211.75 25M211.75 -77V25" stroke="white" stroke-width="1.7191"/>
<path d="M301 -26L211.75 25L301 76M301 -26L390.25 25L301 76M301 -26V76" stroke="white" stroke-width="1.7191"/>
<path d="M301 76L211.75 127L301 178M301 76L390.25 127L301 178M301 76V178" stroke="white" stroke-width="1.7191"/>
<path d="M211.75 127L122.5 178L211.75 229M211.75 127L301 178L211.75 229M211.75 127V229" stroke="white" stroke-width="1.7191"/>
<path d="M122.5 -26L-56 76L122.5 178M122.5 -26L301 76L122.5 178M122.5 -26V178" stroke="white" stroke-width="1.7191"/>
</g>
<g clip-path="url(#clip2_422_44436)">
<path d="M524.125 -51.5L479.5 -26L524.125 -0.5M524.125 -51.5L568.75 -26L524.125 -0.5M524.125 -51.5V-0.5" stroke="white" stroke-width="1.7191"/>
<path d="M568.75 -26L524.125 -0.5L568.75 25M568.75 -26L613.375 -0.5L568.75 25M568.75 -26V25" stroke="white" stroke-width="1.7191"/>
<path d="M613.375 -51.5L568.75 -26L613.375 -0.5M613.375 -51.5L658 -26L613.375 -0.5M613.375 -51.5V-0.5" stroke="white" stroke-width="1.7191"/>
<path d="M345.625 50.5L301 76L345.625 101.5M345.625 50.5L390.25 76L345.625 101.5M345.625 50.5V101.5" stroke="white" stroke-width="1.7191"/>
<path d="M524.125 50.5L479.5 76L524.125 101.5M524.125 50.5L568.75 76L524.125 101.5M524.125 50.5V101.5" stroke="white" stroke-width="1.7191"/>
<path d="M434.875 -0.5L390.25 25L434.875 50.5M434.875 -0.5L479.5 25L434.875 50.5M434.875 -0.5V50.5" stroke="white" stroke-width="1.7191"/>
<path d="M390.25 76L345.625 101.5L390.25 127M390.25 76L434.875 101.5L390.25 127M390.25 76V127" stroke="white" stroke-width="1.7191"/>
<path d="M568.75 76L524.125 101.5L568.75 127M568.75 76L613.375 101.5L568.75 127M568.75 76V127" stroke="white" stroke-width="1.7191"/>
<path d="M479.5 25L434.875 50.5L479.5 76M479.5 25L524.125 50.5L479.5 76M479.5 25V76" stroke="white" stroke-width="1.7191"/>
<path d="M390.25 25L345.625 50.5L390.25 76M390.25 25L434.875 50.5L390.25 76M390.25 25V76" stroke="white" stroke-width="1.7191"/>
<path d="M568.75 25L524.125 50.5L568.75 76M568.75 25L613.375 50.5L568.75 76M568.75 25V76" stroke="white" stroke-width="1.7191"/>
<path d="M479.5 -26L434.875 -0.5L479.5 25M479.5 -26L524.125 -0.5L479.5 25M479.5 -26V25" stroke="white" stroke-width="1.7191"/>
<path d="M434.875 50.5L390.25 76L434.875 101.5M434.875 50.5L479.5 76L434.875 101.5M434.875 50.5V101.5" stroke="white" stroke-width="1.7191"/>
<path d="M613.375 50.5L568.75 76L613.375 101.5M613.375 50.5L658 76L613.375 101.5M613.375 50.5V101.5" stroke="white" stroke-width="1.7191"/>
<path d="M524.125 -0.5L479.5 25L524.125 50.5M524.125 -0.5L568.75 25L524.125 50.5M524.125 -0.5V50.5" stroke="white" stroke-width="1.7191"/>
<path d="M613.375 -0.5L568.75 25L613.375 50.5M613.375 -0.5L658 25L613.375 50.5M613.375 -0.5V50.5" stroke="white" stroke-width="1.7191"/>
<path d="M613.375 101.5L568.75 127L613.375 152.5M613.375 101.5L658 127L613.375 152.5M613.375 101.5V152.5" stroke="white" stroke-width="1.7191"/>
<path d="M568.75 127L524.125 152.5L568.75 178M568.75 127L613.375 152.5L568.75 178M568.75 127V178" stroke="white" stroke-width="1.7191"/>
<path d="M390.25 127L345.625 152.5L390.25 178M390.25 127L434.875 152.5L390.25 178M390.25 127V178" stroke="white" stroke-width="1.7191"/>
<path d="M345.625 101.5L301 127L345.625 152.5M345.625 101.5L390.25 127L345.625 152.5M345.625 101.5V152.5" stroke="white" stroke-width="1.7191"/>
<path d="M345.625 -0.5L301 25L345.625 50.5M345.625 -0.5L390.25 25L345.625 50.5M345.625 -0.5V50.5" stroke="white" stroke-width="1.7191"/>
<path d="M345.625 -51.5L301 -26L345.625 -0.5M345.625 -51.5L390.25 -26L345.625 -0.5M345.625 -51.5V-0.5" stroke="white" stroke-width="1.7191"/>
<path d="M434.875 -51.5L390.25 -26L434.875 -0.5M434.875 -51.5L479.5 -26L434.875 -0.5M434.875 -51.5V-0.5" stroke="white" stroke-width="1.7191"/>
<path d="M390.25 -26L345.625 -0.5L390.25 25M390.25 -26L434.875 -0.5L390.25 25M390.25 -26V25" stroke="white" stroke-width="1.7191"/>
<path d="M479.5 76L434.875 101.5L479.5 127M479.5 76L524.125 101.5L479.5 127M479.5 76V127" stroke="white" stroke-width="1.7191"/>
<path d="M434.875 101.5L390.25 127L434.875 152.5M434.875 101.5L479.5 127L434.875 152.5M434.875 101.5V152.5" stroke="white" stroke-width="1.7191"/>
<path d="M479.5 127L434.875 152.5L479.5 178M479.5 127L524.125 152.5L479.5 178M479.5 127V178" stroke="white" stroke-width="1.7191"/>
<path d="M524.125 101.5L479.5 127L524.125 152.5M524.125 101.5L568.75 127L524.125 152.5M524.125 101.5V152.5" stroke="white" stroke-width="1.7191"/>
<path d="M524.125 152.5L479.5 178L524.125 203.5M524.125 152.5L568.75 178L524.125 203.5M524.125 152.5V203.5" stroke="white" stroke-width="1.7191"/>
<path d="M613.375 152.5L568.75 178L613.375 203.5M613.375 152.5L658 178L613.375 203.5M613.375 152.5V203.5" stroke="white" stroke-width="1.7191"/>
<path d="M434.875 152.5L390.25 178L434.875 203.5M434.875 152.5L479.5 178L434.875 203.5M434.875 152.5V203.5" stroke="white" stroke-width="1.7191"/>
<path d="M345.625 152.5L301 178L345.625 203.5M345.625 152.5L390.25 178L345.625 203.5M345.625 152.5V203.5" stroke="white" stroke-width="1.7191"/>
<path d="M390.25 25L301 76L390.25 127M390.25 25L479.5 76L390.25 127M390.25 25V127" stroke="white" stroke-width="1.7191"/>
<path d="M479.5 -26L390.25 25L479.5 76M479.5 -26L568.75 25L479.5 76M479.5 -26V76" stroke="white" stroke-width="1.7191"/>
<path d="M568.75 25L479.5 76L568.75 127M568.75 25L658 76L568.75 127M568.75 25V127" stroke="white" stroke-width="1.7191"/>
<path d="M479.5 76L390.25 127L479.5 178M479.5 76L568.75 127L479.5 178M479.5 76V178" stroke="white" stroke-width="1.7191"/>
<path d="M390.25 127L301 178L390.25 229M390.25 127L479.5 178L390.25 229M390.25 127V229" stroke="white" stroke-width="1.7191"/>
<path d="M301 76L211.75 127L301 178M301 76L390.25 127L301 178M301 76V178" stroke="white" stroke-width="1.7191"/>
<path d="M301 -26L211.75 25L301 76M301 -26L390.25 25L301 76M301 -26V76" stroke="white" stroke-width="1.7191"/>
<path d="M390.25 -77L301 -26L390.25 25M390.25 -77L479.5 -26L390.25 25M390.25 -77V25" stroke="white" stroke-width="1.7191"/>
<path d="M568.75 -77L479.5 -26L568.75 25M568.75 -77L658 -26L568.75 25M568.75 -77V25" stroke="white" stroke-width="1.7191"/>
<path d="M658 -26L568.75 25L658 76M658 -26L747.25 25L658 76M658 -26V76" stroke="white" stroke-width="1.7191"/>
<path d="M658 76L568.75 127L658 178M658 76L747.25 127L658 178M658 76V178" stroke="white" stroke-width="1.7191"/>
<path d="M568.75 127L479.5 178L568.75 229M568.75 127L658 178L568.75 229M568.75 127V229" stroke="white" stroke-width="1.7191"/>
<path d="M479.5 -26L301 76L479.5 178M479.5 -26L658 76L479.5 178M479.5 -26V178" stroke="white" stroke-width="1.7191"/>
</g>
<g clip-path="url(#clip3_422_44436)">
<path d="M167.125 152.5L122.5 178L167.125 203.5M167.125 152.5L211.75 178L167.125 203.5M167.125 152.5V203.5" stroke="white" stroke-width="1.7191"/>
<path d="M211.75 178L167.125 203.5L211.75 229M211.75 178L256.375 203.5L211.75 229M211.75 178V229" stroke="white" stroke-width="1.7191"/>
<path d="M256.375 152.5L211.75 178L256.375 203.5M256.375 152.5L301 178L256.375 203.5M256.375 152.5V203.5" stroke="white" stroke-width="1.7191"/>
<path d="M-11.375 254.5L-56 280L-11.375 305.5M-11.375 254.5L33.25 280L-11.375 305.5M-11.375 254.5V305.5" stroke="white" stroke-width="1.7191"/>
<path d="M167.125 254.5L122.5 280L167.125 305.5M167.125 254.5L211.75 280L167.125 305.5M167.125 254.5V305.5" stroke="white" stroke-width="1.7191"/>
<path d="M77.875 203.5L33.25 229L77.875 254.5M77.875 203.5L122.5 229L77.875 254.5M77.875 203.5V254.5" stroke="white" stroke-width="1.7191"/>
<path d="M33.25 280L-11.375 305.5L33.25 331M33.25 280L77.875 305.5L33.25 331M33.25 280V331" stroke="white" stroke-width="1.7191"/>
<path d="M211.75 280L167.125 305.5L211.75 331M211.75 280L256.375 305.5L211.75 331M211.75 280V331" stroke="white" stroke-width="1.7191"/>
<path d="M122.5 229L77.875 254.5L122.5 280M122.5 229L167.125 254.5L122.5 280M122.5 229V280" stroke="white" stroke-width="1.7191"/>
<path d="M33.25 229L-11.375 254.5L33.25 280M33.25 229L77.875 254.5L33.25 280M33.25 229V280" stroke="white" stroke-width="1.7191"/>
<path d="M211.75 229L167.125 254.5L211.75 280M211.75 229L256.375 254.5L211.75 280M211.75 229V280" stroke="white" stroke-width="1.7191"/>
<path d="M122.5 178L77.875 203.5L122.5 229M122.5 178L167.125 203.5L122.5 229M122.5 178V229" stroke="white" stroke-width="1.7191"/>
<path d="M77.875 254.5L33.25 280L77.875 305.5M77.875 254.5L122.5 280L77.875 305.5M77.875 254.5V305.5" stroke="white" stroke-width="1.7191"/>
<path d="M256.375 254.5L211.75 280L256.375 305.5M256.375 254.5L301 280L256.375 305.5M256.375 254.5V305.5" stroke="white" stroke-width="1.7191"/>
<path d="M167.125 203.5L122.5 229L167.125 254.5M167.125 203.5L211.75 229L167.125 254.5M167.125 203.5V254.5" stroke="white" stroke-width="1.7191"/>
<path d="M256.375 203.5L211.75 229L256.375 254.5M256.375 203.5L301 229L256.375 254.5M256.375 203.5V254.5" stroke="white" stroke-width="1.7191"/>
<path d="M256.375 305.5L211.75 331L256.375 356.5M256.375 305.5L301 331L256.375 356.5M256.375 305.5V356.5" stroke="white" stroke-width="1.7191"/>
<path d="M211.75 331L167.125 356.5L211.75 382M211.75 331L256.375 356.5L211.75 382M211.75 331V382" stroke="white" stroke-width="1.7191"/>
<path d="M33.25 331L-11.375 356.5L33.25 382M33.25 331L77.875 356.5L33.25 382M33.25 331V382" stroke="white" stroke-width="1.7191"/>
<path d="M-11.375 305.5L-56 331L-11.375 356.5M-11.375 305.5L33.25 331L-11.375 356.5M-11.375 305.5V356.5" stroke="white" stroke-width="1.7191"/>
<path d="M-11.375 203.5L-56 229L-11.375 254.5M-11.375 203.5L33.25 229L-11.375 254.5M-11.375 203.5V254.5" stroke="white" stroke-width="1.7191"/>
<path d="M-11.375 152.5L-56 178L-11.375 203.5M-11.375 152.5L33.25 178L-11.375 203.5M-11.375 152.5V203.5" stroke="white" stroke-width="1.7191"/>
<path d="M77.875 152.5L33.25 178L77.875 203.5M77.875 152.5L122.5 178L77.875 203.5M77.875 152.5V203.5" stroke="white" stroke-width="1.7191"/>
<path d="M33.25 178L-11.375 203.5L33.25 229M33.25 178L77.875 203.5L33.25 229M33.25 178V229" stroke="white" stroke-width="1.7191"/>
<path d="M122.5 280L77.875 305.5L122.5 331M122.5 280L167.125 305.5L122.5 331M122.5 280V331" stroke="white" stroke-width="1.7191"/>
<path d="M77.875 305.5L33.25 331L77.875 356.5M77.875 305.5L122.5 331L77.875 356.5M77.875 305.5V356.5" stroke="white" stroke-width="1.7191"/>
<path d="M122.5 331L77.875 356.5L122.5 382M122.5 331L167.125 356.5L122.5 382M122.5 331V382" stroke="white" stroke-width="1.7191"/>
<path d="M167.125 305.5L122.5 331L167.125 356.5M167.125 305.5L211.75 331L167.125 356.5M167.125 305.5V356.5" stroke="white" stroke-width="1.7191"/>
<path d="M167.125 356.5L122.5 382L167.125 407.5M167.125 356.5L211.75 382L167.125 407.5M167.125 356.5V407.5" stroke="white" stroke-width="1.7191"/>
<path d="M256.375 356.5L211.75 382L256.375 407.5M256.375 356.5L301 382L256.375 407.5M256.375 356.5V407.5" stroke="white" stroke-width="1.7191"/>
<path d="M77.875 356.5L33.25 382L77.875 407.5M77.875 356.5L122.5 382L77.875 407.5M77.875 356.5V407.5" stroke="white" stroke-width="1.7191"/>
<path d="M-11.375 356.5L-56 382L-11.375 407.5M-11.375 356.5L33.25 382L-11.375 407.5M-11.375 356.5V407.5" stroke="white" stroke-width="1.7191"/>
<path d="M33.25 229L-56 280L33.25 331M33.25 229L122.5 280L33.25 331M33.25 229V331" stroke="white" stroke-width="1.7191"/>
<path d="M122.5 178L33.25 229L122.5 280M122.5 178L211.75 229L122.5 280M122.5 178V280" stroke="white" stroke-width="1.7191"/>
<path d="M211.75 229L122.5 280L211.75 331M211.75 229L301 280L211.75 331M211.75 229V331" stroke="white" stroke-width="1.7191"/>
<path d="M122.5 280L33.25 331L122.5 382M122.5 280L211.75 331L122.5 382M122.5 280V382" stroke="white" stroke-width="1.7191"/>
<path d="M33.25 331L-56 382L33.25 433M33.25 331L122.5 382L33.25 433M33.25 331V433" stroke="white" stroke-width="1.7191"/>
<path d="M-56 280L-145.25 331L-56 382M-56 280L33.25 331L-56 382M-56 280V382" stroke="white" stroke-width="1.7191"/>
<path d="M-56 178L-145.25 229L-56 280M-56 178L33.25 229L-56 280M-56 178V280" stroke="white" stroke-width="1.7191"/>
<path d="M33.25 127L-56 178L33.25 229M33.25 127L122.5 178L33.25 229M33.25 127V229" stroke="white" stroke-width="1.7191"/>
<path d="M211.75 127L122.5 178L211.75 229M211.75 127L301 178L211.75 229M211.75 127V229" stroke="white" stroke-width="1.7191"/>
<path d="M301 178L211.75 229L301 280M301 178L390.25 229L301 280M301 178V280" stroke="white" stroke-width="1.7191"/>
<path d="M301 280L211.75 331L301 382M301 280L390.25 331L301 382M301 280V382" stroke="white" stroke-width="1.7191"/>
<path d="M211.75 331L122.5 382L211.75 433M211.75 331L301 382L211.75 433M211.75 331V433" stroke="white" stroke-width="1.7191"/>
<path d="M122.5 178L-56 280L122.5 382M122.5 178L301 280L122.5 382M122.5 178V382" stroke="white" stroke-width="1.7191"/>
</g>
<g clip-path="url(#clip4_422_44436)">
<path d="M524.125 152.5L479.5 178L524.125 203.5M524.125 152.5L568.75 178L524.125 203.5M524.125 152.5V203.5" stroke="white" stroke-width="1.7191"/>
<path d="M568.75 178L524.125 203.5L568.75 229M568.75 178L613.375 203.5L568.75 229M568.75 178V229" stroke="white" stroke-width="1.7191"/>
<path d="M613.375 152.5L568.75 178L613.375 203.5M613.375 152.5L658 178L613.375 203.5M613.375 152.5V203.5" stroke="white" stroke-width="1.7191"/>
<path d="M345.625 254.5L301 280L345.625 305.5M345.625 254.5L390.25 280L345.625 305.5M345.625 254.5V305.5" stroke="white" stroke-width="1.7191"/>
<path d="M524.125 254.5L479.5 280L524.125 305.5M524.125 254.5L568.75 280L524.125 305.5M524.125 254.5V305.5" stroke="white" stroke-width="1.7191"/>
<path d="M434.875 203.5L390.25 229L434.875 254.5M434.875 203.5L479.5 229L434.875 254.5M434.875 203.5V254.5" stroke="white" stroke-width="1.7191"/>
<path d="M390.25 280L345.625 305.5L390.25 331M390.25 280L434.875 305.5L390.25 331M390.25 280V331" stroke="white" stroke-width="1.7191"/>
<path d="M568.75 280L524.125 305.5L568.75 331M568.75 280L613.375 305.5L568.75 331M568.75 280V331" stroke="white" stroke-width="1.7191"/>
<path d="M479.5 229L434.875 254.5L479.5 280M479.5 229L524.125 254.5L479.5 280M479.5 229V280" stroke="white" stroke-width="1.7191"/>
<path d="M390.25 229L345.625 254.5L390.25 280M390.25 229L434.875 254.5L390.25 280M390.25 229V280" stroke="white" stroke-width="1.7191"/>
<path d="M568.75 229L524.125 254.5L568.75 280M568.75 229L613.375 254.5L568.75 280M568.75 229V280" stroke="white" stroke-width="1.7191"/>
<path d="M479.5 178L434.875 203.5L479.5 229M479.5 178L524.125 203.5L479.5 229M479.5 178V229" stroke="white" stroke-width="1.7191"/>
<path d="M434.875 254.5L390.25 280L434.875 305.5M434.875 254.5L479.5 280L434.875 305.5M434.875 254.5V305.5" stroke="white" stroke-width="1.7191"/>
<path d="M613.375 254.5L568.75 280L613.375 305.5M613.375 254.5L658 280L613.375 305.5M613.375 254.5V305.5" stroke="white" stroke-width="1.7191"/>
<path d="M524.125 203.5L479.5 229L524.125 254.5M524.125 203.5L568.75 229L524.125 254.5M524.125 203.5V254.5" stroke="white" stroke-width="1.7191"/>
<path d="M613.375 203.5L568.75 229L613.375 254.5M613.375 203.5L658 229L613.375 254.5M613.375 203.5V254.5" stroke="white" stroke-width="1.7191"/>
<path d="M613.375 305.5L568.75 331L613.375 356.5M613.375 305.5L658 331L613.375 356.5M613.375 305.5V356.5" stroke="white" stroke-width="1.7191"/>
<path d="M568.75 331L524.125 356.5L568.75 382M568.75 331L613.375 356.5L568.75 382M568.75 331V382" stroke="white" stroke-width="1.7191"/>
<path d="M390.25 331L345.625 356.5L390.25 382M390.25 331L434.875 356.5L390.25 382M390.25 331V382" stroke="white" stroke-width="1.7191"/>
<path d="M345.625 305.5L301 331L345.625 356.5M345.625 305.5L390.25 331L345.625 356.5M345.625 305.5V356.5" stroke="white" stroke-width="1.7191"/>
<path d="M345.625 203.5L301 229L345.625 254.5M345.625 203.5L390.25 229L345.625 254.5M345.625 203.5V254.5" stroke="white" stroke-width="1.7191"/>
<path d="M345.625 152.5L301 178L345.625 203.5M345.625 152.5L390.25 178L345.625 203.5M345.625 152.5V203.5" stroke="white" stroke-width="1.7191"/>
<path d="M434.875 152.5L390.25 178L434.875 203.5M434.875 152.5L479.5 178L434.875 203.5M434.875 152.5V203.5" stroke="white" stroke-width="1.7191"/>
<path d="M390.25 178L345.625 203.5L390.25 229M390.25 178L434.875 203.5L390.25 229M390.25 178V229" stroke="white" stroke-width="1.7191"/>
<path d="M479.5 280L434.875 305.5L479.5 331M479.5 280L524.125 305.5L479.5 331M479.5 280V331" stroke="white" stroke-width="1.7191"/>
<path d="M434.875 305.5L390.25 331L434.875 356.5M434.875 305.5L479.5 331L434.875 356.5M434.875 305.5V356.5" stroke="white" stroke-width="1.7191"/>
<path d="M479.5 331L434.875 356.5L479.5 382M479.5 331L524.125 356.5L479.5 382M479.5 331V382" stroke="white" stroke-width="1.7191"/>
<path d="M524.125 305.5L479.5 331L524.125 356.5M524.125 305.5L568.75 331L524.125 356.5M524.125 305.5V356.5" stroke="white" stroke-width="1.7191"/>
<path d="M524.125 356.5L479.5 382L524.125 407.5M524.125 356.5L568.75 382L524.125 407.5M524.125 356.5V407.5" stroke="white" stroke-width="1.7191"/>
<path d="M613.375 356.5L568.75 382L613.375 407.5M613.375 356.5L658 382L613.375 407.5M613.375 356.5V407.5" stroke="white" stroke-width="1.7191"/>
<path d="M434.875 356.5L390.25 382L434.875 407.5M434.875 356.5L479.5 382L434.875 407.5M434.875 356.5V407.5" stroke="white" stroke-width="1.7191"/>
<path d="M345.625 356.5L301 382L345.625 407.5M345.625 356.5L390.25 382L345.625 407.5M345.625 356.5V407.5" stroke="white" stroke-width="1.7191"/>
<path d="M390.25 229L301 280L390.25 331M390.25 229L479.5 280L390.25 331M390.25 229V331" stroke="white" stroke-width="1.7191"/>
<path d="M479.5 178L390.25 229L479.5 280M479.5 178L568.75 229L479.5 280M479.5 178V280" stroke="white" stroke-width="1.7191"/>
<path d="M568.75 229L479.5 280L568.75 331M568.75 229L658 280L568.75 331M568.75 229V331" stroke="white" stroke-width="1.7191"/>
<path d="M479.5 280L390.25 331L479.5 382M479.5 280L568.75 331L479.5 382M479.5 280V382" stroke="white" stroke-width="1.7191"/>
<path d="M390.25 331L301 382L390.25 433M390.25 331L479.5 382L390.25 433M390.25 331V433" stroke="white" stroke-width="1.7191"/>
<path d="M301 280L211.75 331L301 382M301 280L390.25 331L301 382M301 280V382" stroke="white" stroke-width="1.7191"/>
<path d="M301 178L211.75 229L301 280M301 178L390.25 229L301 280M301 178V280" stroke="white" stroke-width="1.7191"/>
<path d="M390.25 127L301 178L390.25 229M390.25 127L479.5 178L390.25 229M390.25 127V229" stroke="white" stroke-width="1.7191"/>
<path d="M568.75 127L479.5 178L568.75 229M568.75 127L658 178L568.75 229M568.75 127V229" stroke="white" stroke-width="1.7191"/>
<path d="M658 178L568.75 229L658 280M658 178L747.25 229L658 280M658 178V280" stroke="white" stroke-width="1.7191"/>
<path d="M658 280L568.75 331L658 382M658 280L747.25 331L658 382M658 280V382" stroke="white" stroke-width="1.7191"/>
<path d="M568.75 331L479.5 382L568.75 433M568.75 331L658 382L568.75 433M568.75 331V433" stroke="white" stroke-width="1.7191"/>
<path d="M479.5 178L301 280L479.5 382M479.5 178L658 280L479.5 382M479.5 178V382" stroke="white" stroke-width="1.7191"/>
</g>
</g>
<g style="mix-blend-mode:overlay">
<rect width="602" height="356" transform="matrix(1 0 0 -1 0 356)" fill="url(#paint0_linear_422_44436)"/>
</g>
</g>
<path d="M492 356V360L507 356M492 356H507M492 356V352L507 356" stroke="white" stroke-width="0.5"/>
<defs>
<linearGradient id="paint0_linear_422_44436" x1="445" y1="-137.9" x2="396.029" y2="332.147" gradientUnits="userSpaceOnUse">
<stop stop-color="#07072E"/>
<stop offset="0.168269" stop-color="#07112C" stop-opacity="0.595643"/>
<stop offset="1" stop-color="#FF0040" stop-opacity="0"/>
</linearGradient>
<clipPath id="clip0_422_44436">
<rect width="602" height="356" fill="white"/>
</clipPath>
<clipPath id="clip1_422_44436">
<rect width="357" height="204" fill="white" transform="translate(-56 -26)"/>
</clipPath>
<clipPath id="clip2_422_44436">
<rect width="357" height="204" fill="white" transform="translate(301 -26)"/>
</clipPath>
<clipPath id="clip3_422_44436">
<rect width="357" height="204" fill="white" transform="translate(-56 178)"/>
</clipPath>
<clipPath id="clip4_422_44436">
<rect width="357" height="204" fill="white" transform="translate(301 178)"/>
</clipPath>
</defs>
</svg>
